# xmcd
#
# Track frame offsets:
#	150
#	13557
#	34940
#	55872
#	79177
#	101852
#	122195
#	134200
#	146977
#	168800
#
# Disc length: 2330 seconds
#
# Revision: 1
# Processed by: cddbd v1.5.1PL0 Copyright (c) Steve Scherf et al.
# Submitted via: CDex 1.50Beta5
#
DISCID=9109180a
DTITLE=杏子 - BLACKTHORN CYDER
DYEAR=1999
DGENRE=Rock
TTITLE0=イコール・ゼロ
TTITLE1=MELON
TTITLE2=ジェラシー
TTITLE3=悲しきは…
TTITLE4=星のかけらを探しに行こう
TTITLE5=イジメテミタイ
TTITLE6=Are You OK?
TTITLE7=夜に詠めるうた
TTITLE8=BLESS YOU
TTITLE9=星のかけらを探しに行こう
EXTD=
EXTT0=
EXTT1=
EXTT2=
EXTT3=
EXTT4=
EXTT5=
EXTT6=
EXTT7=
EXTT8=
EXTT9=
PLAYORDER=
